# xmcd
#
# Track frame offsets: 
#        150
#        19238
#        36963
#        51068
#        74167
#        90126
#        118913
#        129970
#        144554
#        163455
#        180062
#
# Disc length: 2742 seconds
#
# Revision: 0
# Processed by: cddbd v1.5.2PL0 Copyright (c) Steve Scherf et al.
# Submitted via: ExactAudioCopyFreeDBPlugin 1.0
#
DISCID=950ab40b
DTITLE=Greg Wilson - Greg Wilson
DYEAR=2012
DGENRE=Blues
TTITLE0=One Way Out
TTITLE1=Groove Me
TTITLE2=Done Somebody Wrong
TTITLE3=Death Letter
TTITLE4=Miss You
TTITLE5=I Woke Up This Morning
TTITLE6=The Cat
TTITLE7=Almost
TTITLE8=Why
TTITLE9=Farther Up The Road
TTITLE10=Mountain Range
EXTD=
EXTT0=
EXTT1=
EXTT2=
EXTT3=
EXTT4=
EXTT5=
EXTT6=
EXTT7=
EXTT8=
EXTT9=
EXTT10=
PLAYORDER=
